# xmcd
#
# Track frame offsets:
#	150
#	9968
#	18594
#	26667
#	35580
#	45453
#	54345
#	62412
#	74163
#	84241
#	93555
#	102656
#	111786
#	121264
#	134716
#	142659
#	152572
#	164065
#	176206
#	184748
#	194171
#	204711
#	213054
#	220405
#
# Disc length: 3080 seconds
#
# Revision: 0
# Processed by: cddbd v1.5.2PL0 Copyright (c) Steve Scherf et al.
# Submitted via: audiograbber 1.83.01
#
DISCID=620c0618
DTITLE=Various Artist - Hillbilly Bop, Boogie And The Honky Tonk Blues (Vol.5 1958-195
DTITLE=9) [CD2]
DYEAR=2012
DGENRE=Country
TTITLE0=Les Tucker - Wrong Kinda Lovin'
TTITLE1=Tommy Guess And Bill Love - Foolish Heart
TTITLE2=Wes Holly - Shufflin' Shoes
TTITLE3=Hunter Watts And His Southern Pals - Wild Man Rock
TTITLE4=Neal Graham - Stop Your Teasing Me
TTITLE5=Harry Peppel And The Shenandoah Valley Rangers - Sugar Doll
TTITLE6=Eddie And Don And The Louisiana Play Boys - I'm Loaded (With The Blues)
TTITLE7=Mona Kerry - Don't Hang Around My Door
TTITLE8=Kermet Phillips - Walkin' Alone Tonite
TTITLE9=Riley Crabtree - I've Lived Two Day's In One
TTITLE10=Jack Tucker With Don Evans - Lonely Man
TTITLE11=Don Ward With Millie Reid - I'm Gonna' Cry
TTITLE12=Dick Miller - I'll Take Your Love
TTITLE13=Fiddin' Sisk And The Tennessee Sweathearts - Don't Say We're Thru
TTITLE14=Bill Guess AndThe Sundowners - You Set My Heart On Fire
TTITLE15=Al Britt - You Waited Too Long
TTITLE16=Harry Peppel And The Shenandoah Valley Rangers - Selfish Heart
TTITLE17=Dessie Faulkner With The Sunset Drifters - These Memories That I Have
TTITLE18=LaVerne Adams And The Country Four - Blue
TTITLE19=Johnny And Duane - Dreaming
TTITLE20=Jerry Arnold - (Don't Want No) Blonds, Brunettes Or Redheads
TTITLE21=Glenn And Vivian Watson - Just Keep On Going
TTITLE22=Jeannie Christie With Earl Durrance And His Sky Blue Ramblers - Flying
TTITLE22=High
TTITLE23=Ray Mitchem - Out Yonder
EXTD=
EXTT0=
EXTT1=
EXTT2=
EXTT3=
EXTT4=
EXTT5=
EXTT6=
EXTT7=
EXTT8=
EXTT9=
EXTT10=
EXTT11=
EXTT12=
EXTT13=
EXTT14=
EXTT15=
EXTT16=
EXTT17=
EXTT18=
EXTT19=
EXTT20=
EXTT21=
EXTT22=
EXTT23=
PLAYORDER=
